Coordinates
version=1
nRows=5
nColumns=42
inDegrees=yes

Units are S.I. units (second, meters, Newtons, ...)
If the header above contains a line with 'inDegrees', this indicates whether rotational values are in degrees (yes) or radians (no).

endheader
time	pelvis_tilt	pelvis_list	pelvis_rotation	pelvis_tx	pelvis_ty	pelvis_tz	hip_flexion_r	hip_adduction_r	hip_rotation_r	knee_angle_r	knee_adduction_r	knee_angle_r_beta	ankle_angle_r	subtalar_angle_r	mtp_angle_r	hip_flexion_l	hip_adduction_l	hip_rotation_l	knee_angle_l	knee_adduction_l	knee_angle_l_beta	ankle_angle_l	subtalar_angle_l	mtp_angle_l	lumbar_extension	lumbar_bending	lumbar_rotation	arm_flex_r	arm_add_r	arm_rot_r	elbow_flex_r	pro_sup_r	wrist_flex_r	wrist_dev_r	arm_flex_l	arm_add_l	arm_rot_l	elbow_flex_l	pro_sup_l	wrist_flex_l	wrist_dev_l
      1.20000000	     19.78842358	      3.52068563	      0.41275882	     -0.79774122	      0.90009182	     -0.06246603	      6.84737023	     -8.41498191	    -14.90621895	     61.68719964	     -5.92816563	      1.07664474	     14.51599119	    -13.53996381	     -7.70187575	    -13.33482215	      6.15450669	      1.19948370	     22.61105175	      4.20582433	      0.39463730	     21.77418939	      2.88903233	     -7.70187575	    -37.22278977	     -3.35322071	     -3.79571547	      4.87584028	     -4.05701425	    -25.16290378	     25.53710836	     90.00000001	      0.00000000	      0.00000000	     10.08951191	     -7.64441815	    -29.00326735	     34.03195135	     90.00000001	      0.00000000	      0.00000000
      1.21000000	     19.98336601	      3.42321864	      0.43413199	     -0.79031158	      0.90047580	     -0.06277521	      7.35355879	     -8.19368360	    -14.79406058	     59.42229771	     -5.52428825	      1.03711474	     14.01226881	    -14.28186040	     -7.69283889	    -14.52554143	      6.11775152	      1.14054023	     21.74964116	      3.97049490	      0.37960285	     22.40104874	      3.73190588	     -7.69283889	    -37.49560427	     -3.20816181	     -3.91629942	      4.70096598	     -3.99353611	    -26.86129294	     25.01630753	     90.00000001	      0.00000000	      0.00000000	     10.48820235	     -8.00086477	    -28.20472858	     33.94879202	     90.00000001	      0.00000000	      0.00000000
      1.22000000	     19.63579319	      3.59057763	      0.45551514	     -0.78326961	      0.89963956	     -0.06321224	      8.62613121	     -8.40613931	    -14.82287722	     57.48516427	     -5.20570979	      1.00330539	     13.93962544	    -14.06147310	     -7.68955284	    -14.72787133	      6.38349189	      0.83284453	     21.63336353	      3.70873718	      0.37757342	     22.69864636	      3.93474521	     -7.68955284	    -37.24879695	     -3.34617125	     -4.20257143	      4.27826349	     -3.99436449	    -27.08282985	     24.91090120	     90.00000001	      0.00000000	      0.00000000	     10.88197114	     -8.27888670	    -27.99237927	     34.10485012	     90.00000001	      0.00000000	      0.00000000
      1.23000000	     19.79312923	      3.55199166	      0.56534148	     -0.77594777	      0.89976198	     -0.06345528	      9.01122863	     -8.33786697	    -14.93659708	     55.09205178	     -4.73371824	      0.96153770	     13.31684813	    -14.63629113	     -7.68328246	    -15.71677152	      6.23927166	      0.41328625	     21.08237012	      3.64428576	      0.36795677	     23.30961563	      5.20390968	     -7.68328246	    -37.49750174	     -3.24324658	     -4.36562033	      4.00110885	     -3.97395117	    -28.18266694	     24.52702366	     90.00000001	      0.00000000	      0.00000000	     11.39053735	     -8.61685974	    -27.42721608	     33.99464491	     90.00000001	      0.00000000	      0.00000000
      1.24000000	     19.74190185	      3.49796226	      0.66663367	     -0.76868857	      0.89936313	     -0.06361736	      9.63913283	     -8.24895640	    -15.16873013	     52.71662357	     -4.37855667	      0.92007865	     12.78128524	    -14.98238393	     -7.67601346	    -16.28387655	      6.09339001	     -0.39652211	     20.92741459	      3.41890816	      0.36525229	     23.94887821	      6.56967502	     -7.67601346	    -37.53998818	     -3.15233186	     -4.49543274	      3.66579935	     -3.92626224	    -29.29802808	     24.32762051	     90.00000001	      0.00000000	      0.00000000	     11.80810592	     -8.89516349	    -26.94443090	     34.09010624	     90.00000001	      0.00000000	      0.00000000
